# xmcd CD database file
#
# Track frame offsets:
#	150
#	32272
#	61336
#	88188
#	112123
#	140674
#	175753
#	214892
#	241168
#	265658
#
# Disc length: 3901 seconds
#
# Revision: 4
# Processed by: cddbd v1.5.2PL0 Copyright (c) Steve Scherf et al.
# Submitted via: CDex 1.51
#
DISCID=880f3b0a
DTITLE=David Klein Quintet - My Marilyn
DYEAR=2001
DGENRE=Jazz
TTITLE0=Kiss (Niagara)
TTITLE1=My heart belongs to daddy
TTITLE2=Incurably romantic
TTITLE3=You'd be surprised
TTITLE4=Let's make love
TTITLE5=She acts like a woman should
TTITLE6=Specialisation
TTITLE7=Diamonds are a girl's best friend
TTITLE8=Some like it hot
TTITLE9=I'm through with love
EXTD=YEAR: 2001
EXTT0=
EXTT1=
EXTT2=
EXTT3=
EXTT4=
EXTT5=
EXTT6=
EXTT7=
EXTT8=
EXTT9=
PLAYORDER=
